<svg xmlns="http://www.w3.org/2000/svg" xmlns:xlink="http://www.w3.org/1999/xlink" contentStyleType="text/css" data-diagram-type="CLASS" height="604px" preserveAspectRatio="none" style="width:928px;height:604px;background:#FFFFFF;" version="1.1" viewBox="0 0 928 604" width="928px" zoomAndPan="magnify"><title>Gebrauchtwagen - ER-Diagramm</title><defs/><g><text fill="#000000" font-family="sans-serif" font-size="14" font-weight="bold" lengthAdjust="spacing" textLength="218.5996" x="347.7718" y="24.5332">Gebrauchtwagen - ER-Diagramm</text><!--class Gebrauchtwagen--><g class="entity" data-entity="Gebrauchtwagen" data-source-line="6" data-uid="ent0002" id="entity_Gebrauchtwagen"><rect fill="#F1F1F1" height="342.9688" rx="2.5" ry="2.5" style="stroke:#181818;stroke-width:0.5;" width="237.668" x="376.3" y="45.6094"/><text fill="#000000" font-family="sans-serif" font-size="14" lengthAdjust="spacing" textLength="103.5234" x="443.3723" y="65.1426">gebrauchtwagen</text><line style="stroke:#181818;stroke-width:0.5;" x1="377.3" x2="612.968" y1="73.2188" y2="73.2188"/><ellipse cx="387.3" cy="87.5234" fill="#000000" rx="3" ry="3" style="stroke:#000000;stroke-width:1;"/><text fill="#000000" font-family="sans-serif" font-size="14" lengthAdjust="spacing" textLength="103.5098" x="396.3" y="91.752">id : integer &#171;PK&#187;</text><line style="stroke:#181818;stroke-width:1;" x1="377.3" x2="612.968" y1="98.8281" y2="98.8281"/><ellipse cx="387.3" cy="113.1328" fill="#000000" rx="3" ry="3" style="stroke:#000000;stroke-width:1;"/><text fill="#000000" font-family="sans-serif" font-size="14" lengthAdjust="spacing" textLength="99.6064" x="396.3" y="117.3613">version : integer</text><ellipse cx="387.3" cy="130.7422" fill="#000000" rx="3" ry="3" style="stroke:#000000;stroke-width:1;"/><text fill="#000000" font-family="sans-serif" font-size="14" lengthAdjust="spacing" textLength="171.9443" x="396.3" y="134.9707">fin : varchar(17) &#171;UNIQUE&#187;</text><ellipse cx="387.3" cy="148.3516" fill="#000000" rx="3" ry="3" style="stroke:#000000;stroke-width:1;"/><text fill="#000000" font-family="sans-serif" font-size="14" lengthAdjust="spacing" textLength="129.9307" x="396.3" y="152.5801">marke : varchar(100)</text><ellipse cx="387.3" cy="165.9609" fill="#000000" rx="3" ry="3" style="stroke:#000000;stroke-width:1;"/><text fill="#000000" font-family="sans-serif" font-size="14" lengthAdjust="spacing" textLength="132.2754" x="396.3" y="170.1895">modell : varchar(100)</text><ellipse cx="387.3" cy="183.5703" fill="#000000" rx="3" ry="3" style="stroke:#000000;stroke-width:1;"/><text fill="#000000" font-family="sans-serif" font-size="14" lengthAdjust="spacing" textLength="101.1787" x="396.3" y="187.7988">baujahr : integer</text><ellipse cx="387.3" cy="201.1797" fill="#000000" rx="3" ry="3" style="stroke:#000000;stroke-width:1;"/><text fill="#000000" font-family="sans-serif" font-size="14" lengthAdjust="spacing" textLength="125.2959" x="396.3" y="205.4082">erstzulassung : date</text><ellipse cx="387.3" cy="218.7891" fill="#000000" rx="3" ry="3" style="stroke:#000000;stroke-width:1;"/><text fill="#000000" font-family="sans-serif" font-size="14" lengthAdjust="spacing" textLength="145.5166" x="396.3" y="223.0176">kilometerstand : integer</text><ellipse cx="387.3" cy="236.3984" fill="#000000" rx="3" ry="3" style="stroke:#000000;stroke-width:1;"/><text fill="#000000" font-family="sans-serif" font-size="14" lengthAdjust="spacing" textLength="151.71" x="396.3" y="240.627">kraftstoffart : kraftstoffart</text><ellipse cx="387.3" cy="254.0078" fill="#000000" rx="3" ry="3" style="stroke:#000000;stroke-width:1;"/><text fill="#000000" font-family="sans-serif" font-size="14" lengthAdjust="spacing" textLength="199.999" x="396.3" y="258.2363">fahrzeugklasse : fahrzeugklasse</text><ellipse cx="387.3" cy="271.6172" fill="#000000" rx="3" ry="3" style="stroke:#000000;stroke-width:1;"/><text fill="#000000" font-family="sans-serif" font-size="14" lengthAdjust="spacing" textLength="117.5234" x="396.3" y="275.8457">ausstattung : jsonb</text><ellipse cx="387.3" cy="289.2266" fill="#000000" rx="3" ry="3" style="stroke:#000000;stroke-width:1;"/><text fill="#000000" font-family="sans-serif" font-size="14" lengthAdjust="spacing" textLength="133.875" x="396.3" y="293.4551">schadenfrei : boolean</text><text fill="#000000" font-family="sans-serif" font-size="14" lengthAdjust="spacing" textLength="198.4404" x="396.3" y="311.0645">beschreibung_url : varchar(255)</text><text fill="#000000" font-family="sans-serif" font-size="14" lengthAdjust="spacing" textLength="211.668" x="396.3" y="328.6738">anbieter_username : varchar(100)</text><text fill="#000000" font-family="sans-serif" font-size="14" lengthAdjust="spacing" textLength="177.4131" x="396.3" y="346.2832">kontakt_email : varchar(255)</text><ellipse cx="387.3" cy="359.6641" fill="#000000" rx="3" ry="3" style="stroke:#000000;stroke-width:1;"/><text fill="#000000" font-family="sans-serif" font-size="14" lengthAdjust="spacing" textLength="122.9375" x="396.3" y="363.8926">erzeugt : timestamp</text><ellipse cx="387.3" cy="377.2734" fill="#000000" rx="3" ry="3" style="stroke:#000000;stroke-width:1;"/><text fill="#000000" font-family="sans-serif" font-size="14" lengthAdjust="spacing" textLength="143.1582" x="396.3" y="381.502">aktualisiert : timestamp</text></g><!--class Standort--><g class="entity" data-entity="Standort" data-source-line="27" data-uid="ent0003" id="entity_Standort"><rect fill="#F1F1F1" height="114.0469" rx="2.5" ry="2.5" style="stroke:#181818;stroke-width:0.5;" width="302.2607" x="7" y="466.1794"/><text fill="#000000" font-family="sans-serif" font-size="14" lengthAdjust="spacing" textLength="50.5859" x="132.8374" y="485.7126">standort</text><line style="stroke:#181818;stroke-width:0.5;" x1="8" x2="308.2607" y1="493.7888" y2="493.7888"/><ellipse cx="18" cy="508.0934" fill="#000000" rx="3" ry="3" style="stroke:#000000;stroke-width:1;"/><text fill="#000000" font-family="sans-serif" font-size="14" lengthAdjust="spacing" textLength="103.5098" x="27" y="512.322">id : integer &#171;PK&#187;</text><line style="stroke:#181818;stroke-width:1;" x1="8" x2="308.2607" y1="519.3981" y2="519.3981"/><ellipse cx="18" cy="533.7028" fill="#000000" rx="3" ry="3" style="stroke:#000000;stroke-width:1;"/><text fill="#000000" font-family="sans-serif" font-size="14" lengthAdjust="spacing" textLength="101.1445" x="27" y="537.9313">plz : varchar(10)</text><ellipse cx="18" cy="551.3122" fill="#000000" rx="3" ry="3" style="stroke:#000000;stroke-width:1;"/><text fill="#000000" font-family="sans-serif" font-size="14" lengthAdjust="spacing" textLength="107.3721" x="27" y="555.5407">ort : varchar(100)</text><ellipse cx="18" cy="568.9216" fill="#000000" rx="3" ry="3" style="stroke:#000000;stroke-width:1;"/><text fill="#000000" font-family="sans-serif" font-size="14" lengthAdjust="spacing" textLength="276.2607" x="27" y="573.1501">gebrauchtwagen_id : integer &#171;FK, UNIQUE&#187;</text></g><!--class HU--><g class="entity" data-entity="HU" data-source-line="35" data-uid="ent0004" id="entity_HU"><rect fill="#F1F1F1" height="149.2656" rx="2.5" ry="2.5" style="stroke:#181818;stroke-width:0.5;" width="302.2607" x="344" y="448.5694"/><text fill="#000000" font-family="sans-serif" font-size="14" lengthAdjust="spacing" textLength="119.875" x="435.1929" y="468.1026">hauptuntersuchung</text><line style="stroke:#181818;stroke-width:0.5;" x1="345" x2="645.2607" y1="476.1788" y2="476.1788"/><ellipse cx="355" cy="490.4834" fill="#000000" rx="3" ry="3" style="stroke:#000000;stroke-width:1;"/><text fill="#000000" font-family="sans-serif" font-size="14" lengthAdjust="spacing" textLength="103.5098" x="364" y="494.712">id : integer &#171;PK&#187;</text><line style="stroke:#181818;stroke-width:1;" x1="345" x2="645.2607" y1="501.7881" y2="501.7881"/><ellipse cx="355" cy="516.0928" fill="#000000" rx="3" ry="3" style="stroke:#000000;stroke-width:1;"/><text fill="#000000" font-family="sans-serif" font-size="14" lengthAdjust="spacing" textLength="109.7373" x="364" y="520.3213">pruefdatum : date</text><ellipse cx="355" cy="533.7022" fill="#000000" rx="3" ry="3" style="stroke:#000000;stroke-width:1;"/><text fill="#000000" font-family="sans-serif" font-size="14" lengthAdjust="spacing" textLength="105.8545" x="364" y="537.9307">gueltig_bis : date</text><ellipse cx="355" cy="551.3116" fill="#000000" rx="3" ry="3" style="stroke:#000000;stroke-width:1;"/><text fill="#000000" font-family="sans-serif" font-size="14" lengthAdjust="spacing" textLength="199.2197" x="364" y="555.5401">prueforganisation : varchar(100)</text><ellipse cx="355" cy="568.9209" fill="#000000" rx="3" ry="3" style="stroke:#000000;stroke-width:1;"/><text fill="#000000" font-family="sans-serif" font-size="14" lengthAdjust="spacing" textLength="109.7305" x="364" y="573.1495">status : hu_status</text><ellipse cx="355" cy="586.5303" fill="#000000" rx="3" ry="3" style="stroke:#000000;stroke-width:1;"/><text fill="#000000" font-family="sans-serif" font-size="14" lengthAdjust="spacing" textLength="276.2607" x="364" y="590.7588">gebrauchtwagen_id : integer &#171;FK, UNIQUE&#187;</text></g><!--class Schaden--><g class="entity" data-entity="Schaden" data-source-line="45" data-uid="ent0005" id="entity_Schaden"><rect fill="#F1F1F1" height="131.6563" rx="2.5" ry="2.5" style="stroke:#181818;stroke-width:0.5;" width="240.0332" x="681.11" y="457.3794"/><text fill="#000000" font-family="sans-serif" font-size="14" lengthAdjust="spacing" textLength="52.9307" x="774.6613" y="476.9126">schaden</text><line style="stroke:#181818;stroke-width:0.5;" x1="682.11" x2="920.1432" y1="484.9888" y2="484.9888"/><ellipse cx="692.11" cy="499.2934" fill="#000000" rx="3" ry="3" style="stroke:#000000;stroke-width:1;"/><text fill="#000000" font-family="sans-serif" font-size="14" lengthAdjust="spacing" textLength="103.5098" x="701.11" y="503.522">id : integer &#171;PK&#187;</text><line style="stroke:#181818;stroke-width:1;" x1="682.11" x2="920.1432" y1="510.5981" y2="510.5981"/><ellipse cx="692.11" cy="524.9028" fill="#000000" rx="3" ry="3" style="stroke:#000000;stroke-width:1;"/><text fill="#000000" font-family="sans-serif" font-size="14" lengthAdjust="spacing" textLength="170.4336" x="701.11" y="529.1313">bezeichnung : varchar(100)</text><ellipse cx="692.11" cy="542.5122" fill="#000000" rx="3" ry="3" style="stroke:#000000;stroke-width:1;"/><text fill="#000000" font-family="sans-serif" font-size="14" lengthAdjust="spacing" textLength="175.0957" x="701.11" y="546.7407">beschreibung : varchar(500)</text><ellipse cx="692.11" cy="560.1216" fill="#000000" rx="3" ry="3" style="stroke:#000000;stroke-width:1;"/><text fill="#000000" font-family="sans-serif" font-size="14" lengthAdjust="spacing" textLength="155.6475" x="701.11" y="564.3501">feststellungsdatum : date</text><ellipse cx="692.11" cy="577.7309" fill="#000000" rx="3" ry="3" style="stroke:#000000;stroke-width:1;"/><text fill="#000000" font-family="sans-serif" font-size="14" lengthAdjust="spacing" textLength="214.0332" x="701.11" y="581.9595">gebrauchtwagen_id : integer &#171;FK&#187;</text></g><g class="entity" data-entity="GMN9" data-source-line="59" data-uid="ent0010" id="entity_GMN9"><path d="M649.09,187.5594 L649.09,212.8394 L614.26,216.8394 L649.09,220.8394 L649.09,246.6141 A0,0 0 0 0 649.09,246.6141 L899.1642,246.6141 A0,0 0 0 0 899.1642,246.6141 L899.1642,197.5594 L889.1642,187.5594 L649.09,187.5594 A0,0 0 0 0 649.09,187.5594" fill="#FEFFDD" style="stroke:#181818;stroke-width:0.5;"/><path d="M889.1642,187.5594 L889.1642,197.5594 L899.1642,197.5594 L889.1642,187.5594" fill="#FEFFDD" style="stroke:#181818;stroke-width:0.5;"/><text fill="#000000" font-family="sans-serif" font-size="13" lengthAdjust="spacing" textLength="210.2471" x="655.09" y="206.0545">id ist technischer Primaerschluessel.</text><text fill="#000000" font-family="sans-serif" font-size="13" lengthAdjust="spacing" textLength="229.0742" x="655.09" y="222.4061">fin ist fachlich eindeutig und fuer Clients</text><text fill="#000000" font-family="sans-serif" font-size="13" lengthAdjust="spacing" textLength="182.8188" x="655.09" y="238.7576">der stabile Fahrzeugschluessel.</text></g><!--link Gebrauchtwagen to Standort--><g class="link" data-entity-1="Gebrauchtwagen" data-entity-2="Standort" data-source-line="54" data-uid="lnk6" id="link_Gebrauchtwagen_Standort"><path codeLine="54" d="M367.84,216.8394 C270.9,216.8394 158.13,216.8394 158.13,216.8394 C158.13,216.8394 158.13,362.2694 158.13,450.9394" fill="none" id="Gebrauchtwagen-Standort" style="stroke:#181818;stroke-width:1;"/><line style="stroke:#181818;stroke-width:1;" x1="371.84" x2="371.84" y1="212.8394" y2="220.8394"/><line style="stroke:#181818;stroke-width:1;" x1="368.84" x2="368.84" y1="212.8394" y2="220.8394"/><line style="stroke:#181818;stroke-width:1;" x1="367.84" x2="375.84" y1="216.8394" y2="216.8394"/><line style="stroke:#181818;stroke-width:1;" x1="158.13" x2="158.13" y1="454.9394" y2="465.9394"/><ellipse cx="158.13" cy="454.9394" fill="none" rx="4" ry="4" style="stroke:#181818;stroke-width:1;"/><line style="stroke:#181818;stroke-width:1;" x1="162.13" x2="154.13" y1="461.9394" y2="461.9394"/><text fill="#000000" font-family="sans-serif" font-size="13" lengthAdjust="spacing" textLength="18.0718" x="139.13" y="229.0245">hat</text></g><!--link Gebrauchtwagen to HU--><g class="link" data-entity-1="Gebrauchtwagen" data-entity-2="HU" data-source-line="55" data-uid="lnk7" id="link_Gebrauchtwagen_HU"><path codeLine="55" d="M495.13,396.9394 C495.13,417.6594 495.13,414.8994 495.13,433.1394" fill="none" id="Gebrauchtwagen-HU" style="stroke:#181818;stroke-width:1;"/><line style="stroke:#181818;stroke-width:1;" x1="491.13" x2="499.13" y1="392.9394" y2="392.9394"/><line style="stroke:#181818;stroke-width:1;" x1="491.13" x2="499.13" y1="395.9394" y2="395.9394"/><line style="stroke:#181818;stroke-width:1;" x1="495.13" x2="495.13" y1="396.9394" y2="388.9394"/><line style="stroke:#181818;stroke-width:1;" x1="495.13" x2="495.13" y1="437.1394" y2="448.1394"/><ellipse cx="495.13" cy="437.1394" fill="none" rx="4" ry="4" style="stroke:#181818;stroke-width:1;"/><line style="stroke:#181818;stroke-width:1;" x1="499.13" x2="491.13" y1="444.1394" y2="444.1394"/><text fill="#000000" font-family="sans-serif" font-size="13" lengthAdjust="spacing" textLength="18.0718" x="476.13" y="415.0345">hat</text></g><!--link Gebrauchtwagen to Schaden--><g class="link" data-entity-1="Gebrauchtwagen" data-entity-2="Schaden" data-source-line="56" data-uid="lnk8" id="link_Gebrauchtwagen_Schaden"><path codeLine="56" d="M622.27,317.8394 C704.15,317.8394 790.14,317.8394 790.14,317.8394 C790.14,317.8394 790.14,379.0594 790.14,439.0994" fill="none" id="Gebrauchtwagen-Schaden" style="stroke:#181818;stroke-width:1;"/><line style="stroke:#181818;stroke-width:1;" x1="618.27" x2="618.27" y1="321.8394" y2="313.8394"/><line style="stroke:#181818;stroke-width:1;" x1="621.27" x2="621.27" y1="321.8394" y2="313.8394"/><line style="stroke:#181818;stroke-width:1;" x1="622.27" x2="614.27" y1="317.8394" y2="317.8394"/><line style="stroke:#181818;stroke-width:1;" x1="790.14" x2="796.14" y1="449.0994" y2="457.0994"/><line style="stroke:#181818;stroke-width:1;" x1="790.14" x2="784.14" y1="449.0994" y2="457.0994"/><line style="stroke:#181818;stroke-width:1;" x1="790.14" x2="790.14" y1="449.0994" y2="457.0994"/><ellipse cx="790.14" cy="443.0994" fill="none" rx="4" ry="4" style="stroke:#181818;stroke-width:1;"/><text fill="#000000" font-family="sans-serif" font-size="13" lengthAdjust="spacing" textLength="18.0718" x="752.83" y="314.3345">hat</text></g><!--SRC=[fLJ1RjGm4BtdAwoUQ4LGGLeXeQeNQ05LGWNKysgIJ99f77jbZukwNVwTSRnqa-nMhCGjcJSpVlFcsKoiKNt6ma4eM_u53HgLgwiV-IU2na7VPrbB5QgINAanynsP5KXSQJB8ZojKrd5himmD4p-gasRIwqI1dxT_ofGwKrIf3ueCOuDENLpStbnUIZpF1_01dIThTXb3jAOOUG1Njk1UlNr_AdLttxv-lxiQQizK3wx3SShv-Ma2R8LQ7q8A2FVGkjb9SZolWmRlWsa4gu1n03hIjaUEE9XgLjKvgDcphMjmBDZaFqqWHwqnD5ri7PbE0qCE12_DcTF9zzwQOeXx8LwXgHsIn0jhDO8Hf41195X8mJAuyPJl5eiu9PY28kTbyEWCz0SawgnXw7Y9FT213b6HI3DEnTIZ4EnNYMt70JHvGZS5V-yiCMWbDXdCy7FxSumDLdezePgesE6alKrEZRUSDRw-UQsUlJBYra9OYTHner8h4WualzmTHSy5hCKQeHzRf0cecPfbGNuS7fAjQy2G1qxctfiXBZx4iZOiq_T_ZBOrJ58zVHypLO5hfB8roN_x5sPajn6- -8lNid_FSji4z_lY_6EIDC7imTXiyjnkTiuHUO1VI9BDlGm_FUkGSZ9Z6PMZfcLbwzaxbGavygmOHGoIeONYhQCUn2fbgmFAXTLlilWenRGQ92YwAIHJOH07g20lH1saxACcMOhFAlcMjHOaR-xrzkQFUw4KH4hP7m00]--></g></svg>