<svg xmlns="http://www.w3.org/2000/svg" xmlns:xlink="http://www.w3.org/1999/xlink" contentStyleType="text/css" data-diagram-type="DESCRIPTION" height="680px" preserveAspectRatio="none" style="width:749px;height:680px;background:#FFFFFF;" version="1.1" viewBox="0 0 749 680" width="749px" zoomAndPan="magnify"><title>Workshop Gebrauchtwagen Server - Komponenten</title><defs/><g><text fill="#000000" font-family="sans-serif" font-size="14" font-weight="bold" lengthAdjust="spacing" textLength="339.9375" x="197.7676" y="24.5332">Workshop Gebrauchtwagen Server - Komponenten</text><!--entity Client--><g class="entity" data-entity="Client" data-source-line="5" data-uid="ent0002" id="entity_Client"><ellipse cx="434.3865" cy="52.6094" fill="#F1F1F1" rx="8" ry="8" style="stroke:#181818;stroke-width:0.5;"/><path d="M434.3865,60.6094 L434.3865,87.6094 M421.3865,68.6094 L447.3865,68.6094 M434.3865,87.6094 L421.3865,102.6094 M434.3865,87.6094 L447.3865,102.6094" fill="none" style="stroke:#181818;stroke-width:0.5;"/><text fill="#000000" font-family="sans-serif" font-size="14" lengthAdjust="spacing" textLength="35.793" x="416.49" y="118.6426">Client</text></g><!--entity Http--><g class="entity" data-entity="Http" data-source-line="7" data-uid="ent0003" id="entity_Http"><rect fill="#F1F1F1" height="55.2188" rx="2.5" ry="2.5" style="stroke:#181818;stroke-width:0.5;" width="93.1582" x="387.81" y="199.7194"/><text fill="#000000" font-family="sans-serif" font-size="14" lengthAdjust="spacing" textLength="63.0068" x="397.81" y="224.2526">HTTP API</text><text fill="#000000" font-family="sans-serif" font-size="14" lengthAdjust="spacing" textLength="73.1582" x="397.81" y="241.862">internal/http</text></g><!--entity Service--><g class="entity" data-entity="Service" data-source-line="8" data-uid="ent0004" id="entity_Service"><rect fill="#F1F1F1" height="55.2188" rx="2.5" ry="2.5" style="stroke:#181818;stroke-width:0.5;" width="114.1514" x="164.31" y="332.9294"/><text fill="#000000" font-family="sans-serif" font-size="14" lengthAdjust="spacing" textLength="46.6826" x="174.31" y="357.4626">Service</text><text fill="#000000" font-family="sans-serif" font-size="14" lengthAdjust="spacing" textLength="94.1514" x="174.31" y="375.072">internal/service</text></g><!--entity Domain--><g class="entity" data-entity="Domain" data-source-line="9" data-uid="ent0005" id="entity_Domain"><rect fill="#F1F1F1" height="55.2188" rx="2.5" ry="2.5" style="stroke:#181818;stroke-width:0.5;" width="115.7236" x="486.52" y="466.1494"/><text fill="#000000" font-family="sans-serif" font-size="14" lengthAdjust="spacing" textLength="48.2412" x="496.52" y="490.6826">Domain</text><text fill="#000000" font-family="sans-serif" font-size="14" lengthAdjust="spacing" textLength="95.7236" x="496.52" y="508.292">internal/domain</text></g><!--entity Repository--><g class="entity" data-entity="Repository" data-source-line="10" data-uid="ent0006" id="entity_Repository"><rect fill="#F1F1F1" height="55.2188" rx="2.5" ry="2.5" style="stroke:#181818;stroke-width:0.5;" width="131.2754" x="155.75" y="466.1494"/><text fill="#000000" font-family="sans-serif" font-size="14" lengthAdjust="spacing" textLength="66.917" x="165.75" y="490.6826">Repository</text><text fill="#000000" font-family="sans-serif" font-size="14" lengthAdjust="spacing" textLength="111.2754" x="165.75" y="508.292">internal/repository</text></g><!--entity DB--><g class="entity" data-entity="DB" data-source-line="11" data-uid="ent0007" id="entity_DB"><path d="M6,609.3694 C6,599.3694 95.3857,599.3694 95.3857,599.3694 C95.3857,599.3694 184.7715,599.3694 184.7715,609.3694 L184.7715,653.5881 C184.7715,663.5881 95.3857,663.5881 95.3857,663.5881 C95.3857,663.5881 6,663.5881 6,653.5881 L6,609.3694" fill="#F1F1F1" style="stroke:#181818;stroke-width:0.5;"/><path d="M6,609.3694 C6,619.3694 95.3857,619.3694 95.3857,619.3694 C95.3857,619.3694 184.7715,619.3694 184.7715,609.3694" fill="none" style="stroke:#181818;stroke-width:0.5;"/><text fill="#000000" font-family="sans-serif" font-size="14" lengthAdjust="spacing" textLength="76.2617" x="16" y="637.9026">PostgreSQL</text><text fill="#000000" font-family="sans-serif" font-size="14" lengthAdjust="spacing" textLength="158.7715" x="16" y="655.512">Schema gebrauchtwagen</text></g><g class="entity" data-entity="GMN14" data-source-line="21" data-uid="ent0015" id="entity_GMN14"><path d="M313.12,339.1894 L313.12,356.5394 L278.7,360.5394 L313.12,364.5394 L313.12,381.8925 A0,0 0 0 0 313.12,381.8925 L577.6542,381.8925 A0,0 0 0 0 577.6542,381.8925 L577.6542,349.1894 L567.6542,339.1894 L313.12,339.1894 A0,0 0 0 0 313.12,339.1894" fill="#FEFFDD" style="stroke:#181818;stroke-width:0.5;"/><path d="M567.6542,339.1894 L567.6542,349.1894 L577.6542,349.1894 L567.6542,339.1894" fill="#FEFFDD" style="stroke:#181818;stroke-width:0.5;"/><text fill="#000000" font-family="sans-serif" font-size="13" lengthAdjust="spacing" textLength="243.5342" x="319.12" y="357.6845">Create/Update validieren fachliche Regeln</text><text fill="#000000" font-family="sans-serif" font-size="13" lengthAdjust="spacing" textLength="187.1353" x="319.12" y="374.0361">vor dem Zugriff auf PostgreSQL.</text></g><g class="entity" data-entity="GMN17" data-source-line="26" data-uid="ent0018" id="entity_GMN17"><path d="M220.09,610.1294 L220.09,652.8325 A0,0 0 0 0 220.09,652.8325 L476.6833,652.8325 A0,0 0 0 0 476.6833,652.8325 L476.6833,620.1294 L466.6833,610.1294 L333.15,610.1294 L246.48,521.5794 L325.15,610.1294 L220.09,610.1294 A0,0 0 0 0 220.09,610.1294" fill="#FEFFDD" style="stroke:#181818;stroke-width:0.5;"/><path d="M466.6833,610.1294 L466.6833,620.1294 L476.6833,620.1294 L466.6833,610.1294" fill="#FEFFDD" style="stroke:#181818;stroke-width:0.5;"/><text fill="#000000" font-family="sans-serif" font-size="13" lengthAdjust="spacing" textLength="235.5933" x="226.09" y="628.6245">Create speichert Fahrzeug und optionale</text><text fill="#000000" font-family="sans-serif" font-size="13" lengthAdjust="spacing" textLength="183.5488" x="226.09" y="644.9761">Relationen in einer Transaktion.</text></g><!--link Client to Http--><g class="link" data-entity-1="Client" data-entity-2="Http" data-source-line="13" data-uid="lnk8" id="link_Client_Http"><path d="M434.39,122.0694 C434.39,146.4594 434.39,171.4994 434.39,193.3394" fill="none" id="Client-to-Http" style="stroke:#181818;stroke-width:1;"/><polygon fill="#181818" points="434.39,199.3394,438.39,190.3394,434.39,194.3394,430.39,190.3394,434.39,199.3394" style="stroke:#181818;stroke-width:1;"/><text fill="#000000" font-family="sans-serif" font-size="13" lengthAdjust="spacing" textLength="72.9536" x="435.39" y="166.2145">REST/JSON</text></g><!--link Http to Service--><g class="link" data-entity-1="Http" data-entity-2="Service" data-source-line="14" data-uid="lnk9" id="link_Http_Service"><path d="M390.51,255.3494 C353.85,277.9394 306.9589,306.8332 270.3089,329.4032" fill="none" id="Http-to-Service" style="stroke:#181818;stroke-width:1;"/><polygon fill="#181818" points="265.2,332.5494,274.9609,331.236,269.4575,329.9275,270.7659,324.4241,265.2,332.5494" style="stroke:#181818;stroke-width:1;"/><text fill="#000000" font-family="sans-serif" font-size="13" lengthAdjust="spacing" textLength="63.5781" x="341.64" y="299.4245">Use Cases</text></g><!--link Http to Domain--><g class="link" data-entity-1="Http" data-entity-2="Domain" data-source-line="15" data-uid="lnk10" id="link_Http_Domain"><path d="M481.3,244.3594 C519.67,260.2494 571.37,288.6994 595.39,332.9294 C619.08,376.5794 592.0351,428.067 569.0251,460.877" fill="none" id="Http-to-Domain" style="stroke:#181818;stroke-width:1;"/><polygon fill="#181818" points="565.58,465.7894,574.0226,460.7176,568.4509,461.6957,567.4727,456.1241,565.58,465.7894" style="stroke:#181818;stroke-width:1;"/><text fill="#000000" font-family="sans-serif" font-size="13" lengthAdjust="spacing" textLength="136.5127" x="604.96" y="366.0345">HTTP-Parameter/DTOs</text></g><!--link Service to Domain--><g class="link" data-entity-1="Service" data-entity-2="Domain" data-source-line="16" data-uid="lnk11" id="link_Service_Domain"><path d="M278.76,384.8494 C337.22,408.5994 421.861,442.9915 480.631,466.8615" fill="none" id="Service-to-Domain" style="stroke:#181818;stroke-width:1;"/><polygon fill="#181818" points="486.19,469.1194,479.3568,462.0266,481.5575,467.2378,476.3463,469.4386,486.19,469.1194" style="stroke:#181818;stroke-width:1;"/><text fill="#000000" font-family="sans-serif" font-size="13" lengthAdjust="spacing" textLength="130.0762" x="403.22" y="432.6445">Validierung/Fachfehler</text></g><!--link Service to Repository--><g class="link" data-entity-1="Service" data-entity-2="Repository" data-source-line="17" data-uid="lnk12" id="link_Service_Repository"><path d="M221.39,388.4094 C221.39,411.0594 221.39,437.2894 221.39,459.9294" fill="none" id="Service-to-Repository" style="stroke:#181818;stroke-width:1;"/><polygon fill="#181818" points="221.39,465.9294,225.39,456.9294,221.39,460.9294,217.39,456.9294,221.39,465.9294" style="stroke:#181818;stroke-width:1;"/><text fill="#000000" font-family="sans-serif" font-size="13" lengthAdjust="spacing" textLength="129.3589" x="222.39" y="432.6445">Persistenzoperationen</text></g><!--link Repository to DB--><g class="link" data-entity-1="Repository" data-entity-2="DB" data-source-line="18" data-uid="lnk13" id="link_Repository_DB"><path d="M196.49,521.5794 C175.84,543.8194 150.5123,571.1022 128.7323,594.5622" fill="none" id="Repository-to-DB" style="stroke:#181818;stroke-width:1;"/><polygon fill="#181818" points="124.65,598.9594,133.7049,595.0851,128.0519,595.2951,127.842,589.6421,124.65,598.9594" style="stroke:#181818;stroke-width:1;"/><text fill="#000000" font-family="sans-serif" font-size="13" lengthAdjust="spacing" textLength="71.5254" x="166.93" y="565.8645">SQL mit pgx</text></g><!--SRC=[LLB1Rjim3BthAuZSCzzt6B2cwxfsMBtOtO2X5yQcPI6o94XqjlRhHzbkujm4laS-laUnOKlmsyTZwds0htI8E3Oz_qLD3YgA9ugmXKS_1E_8CJcbqj6uW147QDxB5R_Ac4WDezEMbCA6VOITDG8gTUR1vhwkI_XSVdjnHgP5XxRecSC6CC6zFDRSB6yQMb7JN9dO2xfkkFK36hVYjrDXei_Ochsdu9EHFLzN7V5SdBek7DKYum4JmQRqYNMawkVt5rSrFGq8-YguMV16gJa0s6u_JURW8-o_L7NnK3tzK5CX8uiH0Pzb-auaqWMSrnOi1xSjS-magnQtzLDIxvrNn5zeJMieZauNTzZq7VMMuXNtuahu9SLaabpspGUAo2R7erQKQVgDCCKm38OXw7zAESzoSQDx1j-TZx6BX4p5Sv2q24xBAlALEjd46WbBn3LPfqxoFreQuC-ee-awmB63Ix0V5BaMiiQYTF3CViXIgvFCQf02vScHuGxx-4QZXb6wVSXUKBxZdkpY2oGYCau-THtH9JpcyahiFm00]--></g></svg>