<svg xmlns="http://www.w3.org/2000/svg" xmlns:xlink="http://www.w3.org/1999/xlink" contentStyleType="text/css" data-diagram-type="SEQUENCE" height="1047px" preserveAspectRatio="none" style="width:841px;height:1047px;background:#FFFFFF;" version="1.1" viewBox="0 0 841 1047" width="841px" zoomAndPan="magnify"><title>REST Update mit optimistischer Versionierung</title><defs/><g><text fill="#000000" font-family="sans-serif" font-size="14" font-weight="bold" lengthAdjust="spacing" textLength="311.165" x="266.2903" y="29.5332">REST Update mit optimistischer Versionierung</text><rect fill="none" height="293.3516" style="stroke:#000000;stroke-width:1.5;" width="824.7456" x="10" y="654.5469"/><g><title>Client</title><rect fill="#000000" fill-opacity="0.00000" height="843.6797" width="8" x="36.8965" y="121.2188"/><line style="stroke:#181818;stroke-width:0.5;stroke-dasharray:5.0,5.0;" x1="40" x2="40" y1="121.2188" y2="964.8984"/></g><g><title>HTTP API</title><rect fill="#000000" fill-opacity="0.00000" height="843.6797" width="8" x="234.3462" y="121.2188"/><line style="stroke:#181818;stroke-width:0.5;stroke-dasharray:5.0,5.0;" x1="237.7671" x2="237.7671" y1="121.2188" y2="964.8984"/></g><g><title>Service</title><rect fill="#000000" fill-opacity="0.00000" height="843.6797" width="8" x="403.5869" y="121.2188"/><line style="stroke:#181818;stroke-width:0.5;stroke-dasharray:5.0,5.0;" x1="407.5112" x2="407.5112" y1="121.2188" y2="964.8984"/></g><g><title>Repository</title><rect fill="#000000" fill-opacity="0.00000" height="843.6797" width="8" x="572.8276" y="121.2188"/><line style="stroke:#181818;stroke-width:0.5;stroke-dasharray:5.0,5.0;" x1="576.1899" x2="576.1899" y1="121.2188" y2="964.8984"/></g><g><title>PostgreSQL</title><rect fill="#000000" fill-opacity="0.00000" height="843.6797" width="8" x="779.6147" y="121.2188"/><line style="stroke:#181818;stroke-width:0.5;stroke-dasharray:5.0,5.0;" x1="783.4839" x2="783.4839" y1="121.2188" y2="964.8984"/></g><g class="participant participant-head" data-participant="Client"><text fill="#000000" font-family="sans-serif" font-size="14" lengthAdjust="spacing" textLength="35.793" x="20" y="118.1426">Client</text><ellipse cx="40.8965" cy="52.1094" fill="#E2E2F0" rx="8" ry="8" style="stroke:#181818;stroke-width:0.5;"/><path d="M40.8965,60.1094 L40.8965,87.1094 M27.8965,68.1094 L53.8965,68.1094 M40.8965,87.1094 L27.8965,102.1094 M40.8965,87.1094 L53.8965,102.1094" fill="none" style="stroke:#181818;stroke-width:0.5;"/></g><g class="participant participant-tail" data-participant="Client"><text fill="#000000" font-family="sans-serif" font-size="14" lengthAdjust="spacing" textLength="35.793" x="20" y="978.4316">Client</text><ellipse cx="40.8965" cy="990.0078" fill="#E2E2F0" rx="8" ry="8" style="stroke:#181818;stroke-width:0.5;"/><path d="M40.8965,998.0078 L40.8965,1025.0078 M27.8965,1006.0078 L53.8965,1006.0078 M40.8965,1025.0078 L27.8965,1040.0078 M40.8965,1025.0078 L53.8965,1040.0078" fill="none" style="stroke:#181818;stroke-width:0.5;"/></g><g class="participant participant-head" data-participant="Http"><rect fill="#E2E2F0" height="49.2188" rx="2.5" ry="2.5" style="stroke:#181818;stroke-width:0.5;" width="87.1582" x="194.7671" y="71"/><text fill="#000000" font-family="sans-serif" font-size="14" lengthAdjust="spacing" textLength="63.0068" x="206.8428" y="92.5332">HTTP API</text><text fill="#000000" font-family="sans-serif" font-size="14" lengthAdjust="spacing" textLength="73.1582" x="201.7671" y="110.1426">internal/http</text></g><g class="participant participant-tail" data-participant="Http"><rect fill="#E2E2F0" height="49.2188" rx="2.5" ry="2.5" style="stroke:#181818;stroke-width:0.5;" width="87.1582" x="194.7671" y="963.8984"/><text fill="#000000" font-family="sans-serif" font-size="14" lengthAdjust="spacing" textLength="63.0068" x="206.8428" y="985.4316">HTTP API</text><text fill="#000000" font-family="sans-serif" font-size="14" lengthAdjust="spacing" textLength="73.1582" x="201.7671" y="1003.041">internal/http</text></g><g class="participant participant-head" data-participant="Service"><rect fill="#E2E2F0" height="49.2188" rx="2.5" ry="2.5" style="stroke:#181818;stroke-width:0.5;" width="108.1514" x="353.5112" y="71"/><text fill="#000000" font-family="sans-serif" font-size="14" lengthAdjust="spacing" textLength="46.6826" x="384.2456" y="92.5332">Service</text><text fill="#000000" font-family="sans-serif" font-size="14" lengthAdjust="spacing" textLength="94.1514" x="360.5112" y="110.1426">internal/service</text></g><g class="participant participant-tail" data-participant="Service"><rect fill="#E2E2F0" height="49.2188" rx="2.5" ry="2.5" style="stroke:#181818;stroke-width:0.5;" width="108.1514" x="353.5112" y="963.8984"/><text fill="#000000" font-family="sans-serif" font-size="14" lengthAdjust="spacing" textLength="46.6826" x="384.2456" y="985.4316">Service</text><text fill="#000000" font-family="sans-serif" font-size="14" lengthAdjust="spacing" textLength="94.1514" x="360.5112" y="1003.041">internal/service</text></g><g class="participant participant-head" data-participant="Repo"><rect fill="#E2E2F0" height="49.2188" rx="2.5" ry="2.5" style="stroke:#181818;stroke-width:0.5;" width="125.2754" x="514.1899" y="71"/><text fill="#000000" font-family="sans-serif" font-size="14" lengthAdjust="spacing" textLength="66.917" x="543.3691" y="92.5332">Repository</text><text fill="#000000" font-family="sans-serif" font-size="14" lengthAdjust="spacing" textLength="111.2754" x="521.1899" y="110.1426">internal/repository</text></g><g class="participant participant-tail" data-participant="Repo"><rect fill="#E2E2F0" height="49.2188" rx="2.5" ry="2.5" style="stroke:#181818;stroke-width:0.5;" width="125.2754" x="514.1899" y="963.8984"/><text fill="#000000" font-family="sans-serif" font-size="14" lengthAdjust="spacing" textLength="66.917" x="543.3691" y="985.4316">Repository</text><text fill="#000000" font-family="sans-serif" font-size="14" lengthAdjust="spacing" textLength="111.2754" x="521.1899" y="1003.041">internal/repository</text></g><g class="participant participant-head" data-participant="DB"><text fill="#000000" font-family="sans-serif" font-size="14" lengthAdjust="spacing" textLength="76.2617" x="742.4839" y="118.1426">PostgreSQL</text><path d="M765.6147,67.6094 C765.6147,57.6094 783.6147,57.6094 783.6147,57.6094 C783.6147,57.6094 801.6147,57.6094 801.6147,67.6094 L801.6147,93.6094 C801.6147,103.6094 783.6147,103.6094 783.6147,103.6094 C783.6147,103.6094 765.6147,103.6094 765.6147,93.6094 L765.6147,67.6094" fill="#E2E2F0" style="stroke:#181818;stroke-width:1.5;"/><path d="M765.6147,67.6094 C765.6147,77.6094 783.6147,77.6094 783.6147,77.6094 C783.6147,77.6094 801.6147,77.6094 801.6147,67.6094" fill="none" style="stroke:#181818;stroke-width:1.5;"/></g><g class="participant participant-tail" data-participant="DB"><text fill="#000000" font-family="sans-serif" font-size="14" lengthAdjust="spacing" textLength="76.2617" x="742.4839" y="978.4316">PostgreSQL</text><path d="M765.6147,991.5078 C765.6147,981.5078 783.6147,981.5078 783.6147,981.5078 C783.6147,981.5078 801.6147,981.5078 801.6147,991.5078 L801.6147,1017.5078 C801.6147,1027.5078 783.6147,1027.5078 783.6147,1027.5078 C783.6147,1027.5078 765.6147,1027.5078 765.6147,1017.5078 L765.6147,991.5078" fill="#E2E2F0" style="stroke:#181818;stroke-width:1.5;"/><path d="M765.6147,991.5078 C765.6147,1001.5078 783.6147,1001.5078 783.6147,1001.5078 C783.6147,1001.5078 801.6147,1001.5078 801.6147,991.5078" fill="none" style="stroke:#181818;stroke-width:1.5;"/></g><g class="message" data-participant-1="Client" data-participant-2="Http"><polygon fill="#181818" points="226.3462,149.5703,236.3462,153.5703,226.3462,157.5703,230.3462,153.5703" style="stroke:#181818;stroke-width:1;"/><line style="stroke:#181818;stroke-width:1;" x1="40.8965" x2="232.3462" y1="153.5703" y2="153.5703"/><text fill="#000000" font-family="sans-serif" font-size="13" lengthAdjust="spacing" textLength="173.4497" x="47.8965" y="148.7139">GET /api/gebrauchtwagen/{id}</text></g><g class="message" data-participant-1="Http" data-participant-2="Service"><polygon fill="#181818" points="395.5869,179.9219,405.5869,183.9219,395.5869,187.9219,399.5869,183.9219" style="stroke:#181818;stroke-width:1;"/><line style="stroke:#181818;stroke-width:1;" x1="238.3462" x2="401.5869" y1="183.9219" y2="183.9219"/><text fill="#000000" font-family="sans-serif" font-size="13" lengthAdjust="spacing" textLength="105.4727" x="245.3462" y="179.0654">FindDetailByID(id)</text></g><g class="message" data-participant-1="Service" data-participant-2="Repo"><polygon fill="#181818" points="564.8276,210.2734,574.8276,214.2734,564.8276,218.2734,568.8276,214.2734" style="stroke:#181818;stroke-width:1;"/><line style="stroke:#181818;stroke-width:1;" x1="407.5869" x2="570.8276" y1="214.2734" y2="214.2734"/><text fill="#000000" font-family="sans-serif" font-size="13" lengthAdjust="spacing" textLength="105.4727" x="414.5869" y="209.417">FindDetailByID(id)</text></g><g class="message" data-participant-1="Repo" data-participant-2="DB"><polygon fill="#181818" points="771.6147,240.625,781.6147,244.625,771.6147,248.625,775.6147,244.625" style="stroke:#181818;stroke-width:1;"/><line style="stroke:#181818;stroke-width:1;" x1="576.8276" x2="777.6147" y1="244.625" y2="244.625"/><text fill="#000000" font-family="sans-serif" font-size="13" lengthAdjust="spacing" textLength="110.5381" x="583.8276" y="239.7686">SELECT ... version</text></g><g class="message" data-participant-1="DB" data-participant-2="Repo"><polygon fill="#181818" points="587.8276,270.9766,577.8276,274.9766,587.8276,278.9766,583.8276,274.9766" style="stroke:#181818;stroke-width:1;"/><line style="stroke:#181818;stroke-width:1;stroke-dasharray:2.0,2.0;" x1="581.8276" x2="782.6147" y1="274.9766" y2="274.9766"/><text fill="#000000" font-family="sans-serif" font-size="13" lengthAdjust="spacing" textLength="131.8916" x="593.8276" y="270.1201">Fahrzeug + Relationen</text></g><g class="message" data-participant-1="Repo" data-participant-2="Service"><polygon fill="#181818" points="418.5869,301.3281,408.5869,305.3281,418.5869,309.3281,414.5869,305.3281" style="stroke:#181818;stroke-width:1;"/><line style="stroke:#181818;stroke-width:1;stroke-dasharray:2.0,2.0;" x1="412.5869" x2="575.8276" y1="305.3281" y2="305.3281"/><text fill="#000000" font-family="sans-serif" font-size="13" lengthAdjust="spacing" textLength="132.2471" x="424.5869" y="300.4717">GebrauchtwagenDetail</text></g><g class="message" data-participant-1="Service" data-participant-2="Http"><polygon fill="#181818" points="249.3462,331.6797,239.3462,335.6797,249.3462,339.6797,245.3462,335.6797" style="stroke:#181818;stroke-width:1;"/><line style="stroke:#181818;stroke-width:1;stroke-dasharray:2.0,2.0;" x1="243.3462" x2="406.5869" y1="335.6797" y2="335.6797"/><text fill="#000000" font-family="sans-serif" font-size="13" lengthAdjust="spacing" textLength="132.2471" x="255.3462" y="330.8232">GebrauchtwagenDetail</text></g><g class="message" data-participant-1="Http" data-participant-2="Client"><polygon fill="#181818" points="51.8965,378.3828,41.8965,382.3828,51.8965,386.3828,47.8965,382.3828" style="stroke:#181818;stroke-width:1;"/><line style="stroke:#181818;stroke-width:1;stroke-dasharray:2.0,2.0;" x1="45.8965" x2="237.3462" y1="382.3828" y2="382.3828"/><text fill="#000000" font-family="sans-serif" font-size="13" lengthAdjust="spacing" textLength="44.0845" x="57.8965" y="361.1748">200 OK</text><text fill="#000000" font-family="sans-serif" font-size="13" lengthAdjust="spacing" textLength="54.7549" x="57.8965" y="377.5264">ETag: "1"</text></g><g class="message" data-participant-1="Client" data-participant-2="Http"><polygon fill="#181818" points="226.3462,425.0859,236.3462,429.0859,226.3462,433.0859,230.3462,429.0859" style="stroke:#181818;stroke-width:1;"/><line style="stroke:#181818;stroke-width:1;" x1="40.8965" x2="232.3462" y1="429.0859" y2="429.0859"/><text fill="#000000" font-family="sans-serif" font-size="13" lengthAdjust="spacing" textLength="172.7261" x="47.8965" y="407.8779">PUT /api/gebrauchtwagen/{id}</text><text fill="#000000" font-family="sans-serif" font-size="13" lengthAdjust="spacing" textLength="70.6367" x="47.8965" y="424.2295">If-Match: "1"</text></g><g class="message" data-participant-1="Http" data-participant-2="Http"><line style="stroke:#181818;stroke-width:1;" x1="238.3462" x2="280.3462" y1="459.4375" y2="459.4375"/><line style="stroke:#181818;stroke-width:1;" x1="280.3462" x2="280.3462" y1="459.4375" y2="472.4375"/><line style="stroke:#181818;stroke-width:1;" x1="239.3462" x2="280.3462" y1="472.4375" y2="472.4375"/><polygon fill="#181818" points="249.3462,468.4375,239.3462,472.4375,249.3462,476.4375,245.3462,472.4375" style="stroke:#181818;stroke-width:1;"/><text fill="#000000" font-family="sans-serif" font-size="13" lengthAdjust="spacing" textLength="83.8018" x="245.3462" y="454.5811">parseIfMatch()</text></g><g class="message" data-participant-1="Http" data-participant-2="Service"><polygon fill="#181818" points="395.5869,498.7891,405.5869,502.7891,395.5869,506.7891,399.5869,502.7891" style="stroke:#181818;stroke-width:1;"/><line style="stroke:#181818;stroke-width:1;" x1="238.3462" x2="401.5869" y1="502.7891" y2="502.7891"/><text fill="#000000" font-family="sans-serif" font-size="13" lengthAdjust="spacing" textLength="145.2407" x="245.3462" y="497.9326">Update(id, version, input)</text></g><g class="message" data-participant-1="Service" data-participant-2="Service"><line style="stroke:#181818;stroke-width:1;" x1="407.5869" x2="449.5869" y1="533.1406" y2="533.1406"/><line style="stroke:#181818;stroke-width:1;" x1="449.5869" x2="449.5869" y1="533.1406" y2="546.1406"/><line style="stroke:#181818;stroke-width:1;" x1="408.5869" x2="449.5869" y1="546.1406" y2="546.1406"/><polygon fill="#181818" points="418.5869,542.1406,408.5869,546.1406,418.5869,550.1406,414.5869,546.1406" style="stroke:#181818;stroke-width:1;"/><text fill="#000000" font-family="sans-serif" font-size="13" lengthAdjust="spacing" textLength="114.1563" x="414.5869" y="528.2842">ValidateWrite(input)</text></g><g class="message" data-participant-1="Service" data-participant-2="Repo"><polygon fill="#181818" points="564.8276,572.4922,574.8276,576.4922,564.8276,580.4922,568.8276,576.4922" style="stroke:#181818;stroke-width:1;"/><line style="stroke:#181818;stroke-width:1;" x1="407.5869" x2="570.8276" y1="576.4922" y2="576.4922"/><text fill="#000000" font-family="sans-serif" font-size="13" lengthAdjust="spacing" textLength="145.2407" x="414.5869" y="571.6357">Update(id, version, input)</text></g><g class="message" data-participant-1="Repo" data-participant-2="DB"><polygon fill="#181818" points="771.6147,635.5469,781.6147,639.5469,771.6147,643.5469,775.6147,639.5469" style="stroke:#181818;stroke-width:1;"/><line style="stroke:#181818;stroke-width:1;" x1="576.8276" x2="777.6147" y1="639.5469" y2="639.5469"/><text fill="#000000" font-family="sans-serif" font-size="13" lengthAdjust="spacing" textLength="67.1772" x="583.8276" y="601.9873">UPDATE ...</text><text fill="#000000" font-family="sans-serif" font-size="13" lengthAdjust="spacing" textLength="182.7871" x="583.8276" y="618.3389">WHERE id = ? AND version = ?</text><text fill="#000000" font-family="sans-serif" font-size="13" lengthAdjust="spacing" textLength="120.6753" x="583.8276" y="634.6904">version = version + 1</text></g><path d="M10,654.5469 L70.1709,654.5469 L70.1709,662.8984 L60.1709,672.8984 L10,672.8984 L10,654.5469" fill="#EEEEEE" style="stroke:#000000;stroke-width:1.5;"/><rect fill="none" height="293.3516" style="stroke:#000000;stroke-width:1.5;" width="824.7456" x="10" y="654.5469"/><text fill="#000000" font-family="sans-serif" font-size="13" font-weight="bold" lengthAdjust="spacing" textLength="15.1709" x="25" y="669.042">alt</text><text fill="#000000" font-family="sans-serif" font-size="11" font-weight="bold" lengthAdjust="spacing" textLength="85.5776" x="85.1709" y="667.9658">[Version aktuell]</text><g class="message" data-participant-1="DB" data-participant-2="Repo"><polygon fill="#181818" points="587.8276,691.25,577.8276,695.25,587.8276,699.25,583.8276,695.25" style="stroke:#181818;stroke-width:1;"/><line style="stroke:#181818;stroke-width:1;stroke-dasharray:2.0,2.0;" x1="581.8276" x2="782.6147" y1="695.25" y2="695.25"/><text fill="#000000" font-family="sans-serif" font-size="13" lengthAdjust="spacing" textLength="131.5234" x="593.8276" y="690.3936">updated row, version 2</text></g><g class="message" data-participant-1="Repo" data-participant-2="Service"><polygon fill="#181818" points="418.5869,721.6016,408.5869,725.6016,418.5869,729.6016,414.5869,725.6016" style="stroke:#181818;stroke-width:1;"/><line style="stroke:#181818;stroke-width:1;stroke-dasharray:2.0,2.0;" x1="412.5869" x2="575.8276" y1="725.6016" y2="725.6016"/><text fill="#000000" font-family="sans-serif" font-size="13" lengthAdjust="spacing" textLength="99.0107" x="424.5869" y="720.7451">Gebrauchtwagen</text></g><g class="message" data-participant-1="Service" data-participant-2="Http"><polygon fill="#181818" points="249.3462,751.9531,239.3462,755.9531,249.3462,759.9531,245.3462,755.9531" style="stroke:#181818;stroke-width:1;"/><line style="stroke:#181818;stroke-width:1;stroke-dasharray:2.0,2.0;" x1="243.3462" x2="406.5869" y1="755.9531" y2="755.9531"/><text fill="#000000" font-family="sans-serif" font-size="13" lengthAdjust="spacing" textLength="99.0107" x="255.3462" y="751.0967">Gebrauchtwagen</text></g><g class="message" data-participant-1="Http" data-participant-2="Client"><polygon fill="#181818" points="51.8965,798.6563,41.8965,802.6563,51.8965,806.6563,47.8965,802.6563" style="stroke:#181818;stroke-width:1;"/><line style="stroke:#181818;stroke-width:1;stroke-dasharray:2.0,2.0;" x1="45.8965" x2="237.3462" y1="802.6563" y2="802.6563"/><text fill="#000000" font-family="sans-serif" font-size="13" lengthAdjust="spacing" textLength="91.0635" x="57.8965" y="781.4482">204 No Content</text><text fill="#000000" font-family="sans-serif" font-size="13" lengthAdjust="spacing" textLength="54.7549" x="57.8965" y="797.7998">ETag: "2"</text></g><line style="stroke:#000000;stroke-width:1;stroke-dasharray:2.0,2.0;" x1="10" x2="834.7456" y1="811.6563" y2="811.6563"/><text fill="#000000" font-family="sans-serif" font-size="11" font-weight="bold" lengthAdjust="spacing" textLength="89.8638" x="15" y="823.0752">[Version veraltet]</text><g class="message" data-participant-1="DB" data-participant-2="Repo"><polygon fill="#181818" points="587.8276,844.8438,577.8276,848.8438,587.8276,852.8438,583.8276,848.8438" style="stroke:#181818;stroke-width:1;"/><line style="stroke:#181818;stroke-width:1;stroke-dasharray:2.0,2.0;" x1="581.8276" x2="782.6147" y1="848.8438" y2="848.8438"/><text fill="#000000" font-family="sans-serif" font-size="13" lengthAdjust="spacing" textLength="39.019" x="593.8276" y="843.9873">no row</text></g><g class="message" data-participant-1="Repo" data-participant-2="Service"><polygon fill="#181818" points="418.5869,875.1953,408.5869,879.1953,418.5869,883.1953,414.5869,879.1953" style="stroke:#181818;stroke-width:1;"/><line style="stroke:#181818;stroke-width:1;stroke-dasharray:2.0,2.0;" x1="412.5869" x2="575.8276" y1="879.1953" y2="879.1953"/><text fill="#000000" font-family="sans-serif" font-size="13" lengthAdjust="spacing" textLength="104.7554" x="424.5869" y="874.3389">ErrVersionConflict</text></g><g class="message" data-participant-1="Service" data-participant-2="Http"><polygon fill="#181818" points="249.3462,905.5469,239.3462,909.5469,249.3462,913.5469,245.3462,909.5469" style="stroke:#181818;stroke-width:1;"/><line style="stroke:#181818;stroke-width:1;stroke-dasharray:2.0,2.0;" x1="243.3462" x2="406.5869" y1="909.5469" y2="909.5469"/><text fill="#000000" font-family="sans-serif" font-size="13" lengthAdjust="spacing" textLength="104.7554" x="255.3462" y="904.6904">ErrVersionConflict</text></g><g class="message" data-participant-1="Http" data-participant-2="Client"><polygon fill="#181818" points="51.8965,935.8984,41.8965,939.8984,51.8965,943.8984,47.8965,939.8984" style="stroke:#181818;stroke-width:1;"/><line style="stroke:#181818;stroke-width:1;stroke-dasharray:2.0,2.0;" x1="45.8965" x2="237.3462" y1="939.8984" y2="939.8984"/><text fill="#000000" font-family="sans-serif" font-size="13" lengthAdjust="spacing" textLength="136.5889" x="57.8965" y="935.042">412 Precondition Failed</text></g><!--SRC=[XPDFRzf04CNl-ob6d18bG40v8RKLO3UWfgaB9hbmsTY36TLPM-jnegJgT-_uNy32RMxUdT_RVVl6myGnmifT-x19Gyq8JyIGf4nFb35bmHujtAFDA364DZUHKZhWnC8y9ZIiKcsP0agrOUWjVD-3gRVS6ZACrkXuk6TEUw0pMCX7crwZVQO0Z-2isYdvkjgMh31DCfBhNuzKzdsp51QCagVeHvqXzBmauyZY-kTjMNLcIbNMeV-vD0KJk75z6EgKXX4-Mfq7UtxH4PhXRmh_g98HjZOa-5SoeOEiAPwzBfqp2izLKnIkkByRAYj2E3EfhzrRT-x3O320vofV9VlzemFqthvX7i65xCIQXK1Jdz6oSzCoNTrvC7JqoYwkUfr0TIWJ65zTmOzlM-FwEff0RzJh2CpR_3kmhLdk-jyr1_jAtUHNIwMV6Ivt9N1stf5kzHzAO9TDC9T09isvbVA1lzSn5Oe7IuNiXApZ_C-nhRviF6VgkqLVjkPXuQvSe10-mHUOtZcDibXlpM7HV5t0ICOZvcPYGF_Y7EDO0RHxcvTcGh39oxiT60lsONk5-R2rmdIrzHhk4fWdCZQ6tzixxYcCPKuQns967e1yOjaaXTjkYwwrjLwEtyKKSBVDJkxKwlLe39x5834X5R-zZ0B562eqeVeB]--></g></svg>